<?xml version="1.0" encoding="UTF-8"?>
<svg id="Isolation_Mode" data-name="Isolation Mode" xmlns="http://www.w3.org/2000/svg" viewBox="0 0 97.72192 94.49939">
  <polygon points="35.0463 60.58234 35.0463 46.50534 21.78198 46.50534 21.78198 60.58234 11.44644 60.58234 11.44644 23.53922 21.78198 23.53922 21.78198 37.40448 35.0463 37.40448 35.0463 23.53922 45.38007 23.53922 45.38007 60.58234 35.0463 60.58234" style="fill: #000;"/>
  <g>
    <path d="M51.96808,23.53879h17.63318c5.70068,0,9.64148,1.48224,12.14563,4.02325,2.18445,2.11664,3.30399,4.97351,3.30399,8.62488v.10501c0,5.66299-3.03708,9.41937-7.67197,11.37762l8.89719,12.91235h-11.9325l-7.51254-11.21924h-4.5274v11.21924h-10.33557V23.53879Zm17.15402,17.78174c3.51624,0,5.53946-1.69312,5.53946-4.39249v-.10675c0-2.91025-2.12982-4.39249-5.5932-4.39249h-6.76471v8.89172h6.81845Z" style="fill: #000;"/>
    <rect x=".92484" y=".91788" width="95.87302" height="12.98062" style="fill: #d7c727;"/>
    <path d="M95.87299,12.98062H1.84882V1.83749H95.87299V12.98062Zm1.84885-12.98062H0V14.81723H97.72183V0Z" style="fill: #000;"/>
    <polygon points=".00009 69.30463 .00009 82.30103 48.86099 94.49939 97.72192 82.30103 97.72192 69.30463 .00009 69.30463" style="fill: #000;"/>
  </g>
</svg>