<?xml version="1.0" encoding="UTF-8"?>
<svg id="Layer_1" data-name="Layer 1" xmlns="http://www.w3.org/2000/svg" xmlns:xlink="http://www.w3.org/1999/xlink" viewBox="0 0 342.0005 142.995">
  <path id="fullLogo" d="M13.0643,34.1937h10.2278v13.8124h13.1273v-13.8124h10.2262v36.9022h-10.2262v-14.0231h-13.1273v14.0231H13.0643V34.1937Z"/>
  <path id="fullLogo-2" data-name="fullLogo" d="M65.9225,33.9299h9.8596l15.7084,37.1659h-10.9644l-2.6888-6.5902h-14.2337l-2.6358,6.5902h-10.7537l15.7084-37.1659Zm8.9622,22.6154l-4.112-10.49-4.1635,10.49h8.2755Z"/>
  <path id="fullLogo-3" data-name="fullLogo" d="M95.0589,34.1937h17.45c5.6414,0,9.5411,1.4763,12.0193,4.0075,2.1614,2.1083,3.2694,4.9547,3.2694,8.5923v.1045c0,5.6414-3.0056,9.3835-7.5921,11.3342l8.8046,12.8636h-11.8086l-7.4345-11.1766h-4.4803v11.1766h-10.2278V34.1937Zm16.9756,17.7138c3.48,0,5.4822-1.6869,5.4822-4.3758v-.1061c0-2.8995-2.1083-4.3758-5.5352-4.3758h-6.6947v8.8577h6.7478Z"/>
  <path id="fullLogo-4" data-name="fullLogo" d="M132.9469,34.1937h14.2337c13.1804,0,20.8239,7.5921,20.8239,18.2396v.1061c0,10.6492-7.7497,18.5564-21.0346,18.5564h-14.0231V34.1937Zm14.3929,27.8354c6.1142,0,10.1731-3.3739,10.1731-9.3321v-.1045c0-5.9051-4.059-9.3321-10.1731-9.3321h-4.1651v18.7687h4.1651Z"/>
  <path id="fullLogo-5" data-name="fullLogo" d="M173.26,34.1937h17.45c5.6414,0,9.5411,1.4763,12.0193,4.0075,2.1614,2.1083,3.2694,4.9547,3.2694,8.5923v.1045c0,5.6414-3.0056,9.3835-7.5921,11.3342l8.8046,12.8636h-11.8086l-7.4345-11.1766h-4.4803v11.1766h-10.2278V34.1937Zm16.9756,17.7138c3.48,0,5.4822-1.6869,5.4822-4.3758v-.1061c0-2.8995-2.1083-4.3758-5.5352-4.3758h-6.6947v8.8577h6.7478Z"/>
  <path id="fullLogo-6" data-name="fullLogo" d="M209.884,52.7501v-.1045c0-10.5961,8.5393-19.19,19.9266-19.19s19.822,8.4878,19.822,19.0839v.1061c0,10.5961-8.5409,19.1884-19.9282,19.1884s-19.8204-8.4878-19.8204-19.0839Zm29.3101,0v-.1045c0-5.3246-3.8483-9.9641-9.4897-9.9641-5.5867,0-9.3305,4.5334-9.3305,9.858v.1061c0,5.323,3.8483,9.9625,9.4366,9.9625,5.6414,0,9.3835-4.5334,9.3835-9.858Z"/>
  <path id="fullLogo-7" data-name="fullLogo" d="M253.6739,52.7501v-.1045c0-10.7553,8.2755-19.19,19.4522-19.19,7.539,0,12.3892,3.1632,15.6569,7.6966l-7.6966,5.9582c-2.1083-2.6374-4.5334-4.3243-8.0665-4.3243-5.1654,0-8.803,4.3758-8.803,9.7534v.1061c0,5.5352,3.6376,9.858,8.803,9.858,3.8483,0,6.1158-1.7931,8.3302-4.4819l7.6966,5.4822c-3.48,4.7987-8.171,8.3302-16.342,8.3302-10.5446,0-19.0308-8.0665-19.0308-19.0839Z"/>
  <path id="fullLogo-8" data-name="fullLogo" d="M293.4048,34.1937h10.2278v14.9719l12.7044-14.9719h12.1254l-13.97,15.8676,14.4444,21.0346h-12.283l-9.279-13.7063-3.7422,4.1651v9.5411h-10.2278V34.1937Z"/>
  <a xlink:href="27.2376470588235">
    <rect id="fullLogo-9" data-name="fullLogo" x="1.0005" y="1" width="340.0005" height="16" style="fill: #d7c727;"/>
  </a>
  <path id="fullLogo-10" data-name="fullLogo" d="M340.0005,2v14H2.0005V2H340.0005m2-2H.0005V18H342.0005V0h0Z"/>
  <a xlink:href="87.2558823529412">
    <polygon id="fullLogo-11" data-name="fullLogo" points="0 86.4005 0 122.2964 171 142.995 342 122.2964 342 86.4005 0 86.4005"/>
  </a>
  <path id="fullLogo-12" data-name="fullLogo" d="M25.4525,97.4325h2.4299v13.8253h-2.4299v-13.8253Z" style="fill: #fff;"/>
  <path id="fullLogo-13" data-name="fullLogo" d="M39.68,97.4325h2.2514l7.4072,9.5588v-9.5588h2.3897v13.8253h-2.0343l-7.6243-9.8354v9.8354h-2.3897v-13.8253Z" style="fill: #fff;"/>
  <path id="fullLogo-14" data-name="fullLogo" d="M63.3924,97.4325h10.2907v2.2128h-7.8607v3.7711h6.9714v2.2128h-6.9714v5.6285h-2.4299v-13.8253Z" style="fill: #fff;"/>
  <path id="fullLogo-15" data-name="fullLogo" d="M84.4578,97.4325h6.1625c1.7384,0,3.1005,.513,3.9899,1.383,.7301,.751,1.145,1.777,1.145,2.9815v.0402c0,2.2707-1.3621,3.6344-3.2984,4.186l3.7326,5.2345h-2.8625l-3.3981-4.8196h-3.041v4.8196h-2.4299v-13.8253Zm5.9856,6.8539c1.7368,0,2.8432-.9086,2.8432-2.3109v-.0402c0-1.4811-1.0662-2.29-2.8641-2.29h-3.5348v4.6411h3.5557Z" style="fill: #fff;"/>
  <path id="fullLogo-16" data-name="fullLogo" d="M111.7452,97.3344h2.2514l6.0837,13.9234h-2.5682l-1.4023-3.3385h-6.5372l-1.4216,3.3385h-2.4894l6.0837-13.9234Zm3.4769,8.4331l-2.3897-5.5304-2.3704,5.5304h4.7602Z" style="fill: #fff;"/>
  <path id="fullLogo-17" data-name="fullLogo" d="M129.4141,109.2427l1.4618-1.7368c1.3235,1.145,2.647,1.7963,4.3646,1.7963,1.5004,0,2.4492-.6915,2.4492-1.7384v-.0386c0-.9874-.5532-1.5213-3.1215-2.1131-2.9413-.7108-4.601-1.5808-4.601-4.1281v-.0402c0-2.3688,1.9748-4.0091,4.72-4.0091,2.015,0,3.6152,.6127,5.0175,1.7384l-1.3042,1.8365c-1.2447-.9279-2.4878-1.4216-3.7519-1.4216-1.4232,0-2.2514,.7301-2.2514,1.6387v.0402c0,1.0662,.632,1.5406,3.2774,2.1726,2.9236,.7108,4.445,1.7577,4.445,4.0477v.0402c0,2.5875-2.0343,4.1281-4.9387,4.1281-2.1131,0-4.1073-.7317-5.7669-2.2128Z" style="fill: #fff;"/>
  <path id="fullLogo-18" data-name="fullLogo" d="M154.1944,99.6839h-4.3855v-2.2514h11.2186v2.2514h-4.3839v11.5738h-2.4492v-11.5738Z" style="fill: #fff;"/>
  <path id="fullLogo-19" data-name="fullLogo" d="M171.7057,97.4325h6.1625c1.7384,0,3.1005,.513,3.9899,1.383,.7301,.751,1.145,1.777,1.145,2.9815v.0402c0,2.2707-1.3621,3.6344-3.2984,4.186l3.7326,5.2345h-2.8625l-3.3981-4.8196h-3.041v4.8196h-2.4299v-13.8253Zm5.9856,6.8539c1.7368,0,2.8432-.9086,2.8432-2.3109v-.0402c0-1.4811-1.0662-2.29-2.8641-2.29h-3.5348v4.6411h3.5557Z" style="fill: #fff;"/>
  <path id="fullLogo-20" data-name="fullLogo" d="M193.8775,105.3912v-7.9587h2.4299v7.8606c0,2.5682,1.3235,3.9496,3.4962,3.9496,2.1517,0,3.4752-1.3026,3.4752-3.8515v-7.9587h2.4299v7.8413c0,4.1281-2.3302,6.201-5.9454,6.201-3.5943,0-5.8859-2.0729-5.8859-6.0836Z" style="fill: #fff;"/>
  <path id="fullLogo-21" data-name="fullLogo" d="M216.5447,104.3845v-.0386c0-3.9303,2.9413-7.1498,7.129-7.1498,2.5473,0,4.088,.8877,5.4115,2.1517l-1.5599,1.7979c-1.1064-1.0276-2.2916-1.7175-3.8709-1.7175-2.647,0-4.5624,2.171-4.5624,4.8775v.0402c0,2.7049,1.9153,4.9177,4.5624,4.9177,1.6982,0,2.7853-.6915,3.969-1.7979l1.5615,1.5792c-1.4425,1.502-3.0217,2.4492-5.6093,2.4492-4.0301,0-7.0309-3.1391-7.0309-7.1096Z" style="fill: #fff;"/>
  <path id="fullLogo-22" data-name="fullLogo" d="M243.2386,99.6839h-4.3855v-2.2514h11.2186v2.2514h-4.3839v11.5738h-2.4492v-11.5738Z" style="fill: #fff;"/>
  <path id="fullLogo-23" data-name="fullLogo" d="M260.5312,105.3912v-7.9587h2.4299v7.8606c0,2.5682,1.3235,3.9496,3.4962,3.9496,2.1517,0,3.4752-1.3026,3.4752-3.8515v-7.9587h2.4299v7.8413c0,4.1281-2.3318,6.201-5.9454,6.201-3.5943,0-5.8859-2.0729-5.8859-6.0836Z" style="fill: #fff;"/>
  <path id="fullLogo-24" data-name="fullLogo" d="M283.8095,97.4325h6.1625c1.7384,0,3.1005,.513,3.9899,1.383,.7301,.751,1.145,1.777,1.145,2.9815v.0402c0,2.2707-1.3621,3.6344-3.2984,4.186l3.7326,5.2345h-2.8625l-3.3981-4.8196h-3.041v4.8196h-2.4299v-13.8253Zm5.9856,6.8539c1.7368,0,2.8432-.9086,2.8432-2.3109v-.0402c0-1.4811-1.0662-2.29-2.8641-2.29h-3.5348v4.6411h3.5557Z" style="fill: #fff;"/>
  <path id="fullLogo-25" data-name="fullLogo" d="M306.1984,97.4325h10.2505v2.1726h-7.8205v3.5942h6.9328v2.1726h-6.9328v3.7132h7.9202v2.1726h-10.3502v-13.8253Z" style="fill: #fff;"/>
</svg>